HIERARCHY
ROOT Hips
{
	OFFSET 42.939301 -0.431047 100.051003
	CHANNELS 6 Xposition Yposition Zposition Xrotation Yrotation Zrotation
	JOINT spine
	{
		OFFSET 0.000000 -0.507025 8.817047
		CHANNELS 3 Xrotation Yrotation Zrotation
		JOINT spine1
		{
			OFFSET 0.000000 -0.000002 10.776604
			CHANNELS 3 Xrotation Yrotation Zrotation
			JOINT spine2
			{
				OFFSET 0.000000 -0.000002 10.325897
				CHANNELS 3 Xrotation Yrotation Zrotation
				JOINT Neck
				{
					OFFSET 0.000000 -1.263954 26.511002
					CHANNELS 3 Xrotation Yrotation Zrotation
					JOINT Head
					{
						OFFSET 0.000000 -0.000001 8.009659
						CHANNELS 3 Xrotation Yrotation Zrotation
						End Site
						{
							OFFSET 0.000000 6.393857 19.387894
						}
					}
				}
				JOINT RightShoulder
				{
					OFFSET -4.347950 0.605420 11.151199
					CHANNELS 3 Xrotation Yrotation Zrotation
					JOINT RightArm
					{
						OFFSET 0.000000 -0.000002 14.625793
						CHANNELS 3 Xrotation Yrotation Zrotation
						JOINT RightArmRoll
						{
							OFFSET 0.000000 -0.000001 7.383408
							CHANNELS 3 Xrotation Yrotation Zrotation
							JOINT RightForeArm
							{
								OFFSET 0.000000 -0.000003 21.505203
								CHANNELS 3 Xrotation Yrotation Zrotation
								JOINT RightForeArmRoll
								{
									OFFSET 0.000000 -0.000001 8.285324
									CHANNELS 3 Xrotation Yrotation Zrotation
									JOINT RightHand
									{
										OFFSET 0.000000 -0.000003 16.626801
										CHANNELS 3 Xrotation Yrotation Zrotation
										End Site
										{
											OFFSET 0.000000 0.000000 0.100006
										}
									}
								}
							}
						}
					}
				}
				JOINT LeftShoulder
				{
					OFFSET 4.347950 0.605420 11.151199
					CHANNELS 3 Xrotation Yrotation Zrotation
					JOINT LeftArm
					{
						OFFSET 0.000000 -0.000002 14.625793
						CHANNELS 3 Xrotation Yrotation Zrotation
						JOINT LeftArmRoll
						{
							OFFSET 0.000000 -0.000001 7.383392
							CHANNELS 3 Xrotation Yrotation Zrotation
							JOINT LeftForeArm
							{
								OFFSET 0.000000 -0.000003 21.505203
								CHANNELS 3 Xrotation Yrotation Zrotation
								JOINT LeftForeArmRoll
								{
									OFFSET 0.000000 -0.000001 8.285324
									CHANNELS 3 Xrotation Yrotation Zrotation
									JOINT LeftHand
									{
										OFFSET 0.000000 -0.000003 16.626801
										CHANNELS 3 Xrotation Yrotation Zrotation
										End Site
										{
											OFFSET 0.000000 0.000000 0.100006
										}
									}
								}
							}
						}
					}
				}
			}
		}
	}
	JOINT RightUpLeg
	{
		OFFSET -7.815102 1.202170 -1.433090
		CHANNELS 3 Xrotation Yrotation Zrotation
		JOINT RightUpLegRoll
		{
			OFFSET 0.000000 -0.000003 19.495903
			CHANNELS 3 Xrotation Yrotation Zrotation
			JOINT RightLeg
			{
				OFFSET 0.000000 0.000004 -24.142700
				CHANNELS 3 Xrotation Yrotation Zrotation
				JOINT RightLegRoll
				{
					OFFSET 0.000000 -0.000004 24.221703
					CHANNELS 3 Xrotation Yrotation Zrotation
					JOINT RightFoot
					{
						OFFSET 0.000000 -0.000003 20.160500
						CHANNELS 3 Xrotation Yrotation Zrotation
						JOINT RightToeBase
						{
							OFFSET 0.000000 -0.000003 16.853195
							CHANNELS 3 Xrotation Yrotation Zrotation
							End Site
							{
								OFFSET 0.007145 0.940780 8.161865
							}
						}
					}
				}
			}
		}
	}
	JOINT LeftUpLeg
	{
		OFFSET 7.815102 1.202170 -1.433090
		CHANNELS 3 Xrotation Yrotation Zrotation
		JOINT LeftUpLegRoll
		{
			OFFSET 0.000000 -0.000003 19.496002
			CHANNELS 3 Xrotation Yrotation Zrotation
			JOINT LeftLeg
			{
				OFFSET 0.000000 -0.000004 24.142601
				CHANNELS 3 Xrotation Yrotation Zrotation
				JOINT LeftLegRoll
				{
					OFFSET 0.000000 -0.000004 24.445602
					CHANNELS 3 Xrotation Yrotation Zrotation
					JOINT LeftFoot
					{
						OFFSET 0.000000 -0.000003 19.936600
						CHANNELS 3 Xrotation Yrotation Zrotation
						JOINT LeftToeBase
						{
							OFFSET 0.000000 -0.000003 16.853195
							CHANNELS 3 Xrotation Yrotation Zrotation
							End Site
							{
								OFFSET -0.032013 0.940779 8.161865
							}
						}
					}
				}
			}
		}
	}
}
MOTION
Frames: 6
Frame Time: 0.041667
50.264194 -11.182217 114.581993 10.585386 -0.232447 4.844160 -2.205845 -0.208779 0.091835 -0.408567 -0.420082 0.177647 1.236523 -0.417925 0.182669 -18.704106 18.747285 0.469524 22.756486 -8.758709 -2.708510 -13.866813 -36.303924 -15.490787 49.110105 -129.301191 -11.862701 -0.000002 -0.000003 -0.000000 82.370592 8.404262 -4.981917 0.000000 0.000009 -3.011990 -5.000253 -7.998723 0.000157 -14.773014 47.256033 17.109013 34.487930 112.707335 7.833944 0.000001 -0.000001 0.000002 70.353489 3.953846 -1.871695 -0.000000 -0.000001 3.003132 -5.000230 7.998775 -0.000147 -20.558651 -172.470650 4.210769 -179.999991 0.000005 -1.237994 148.425625 -5.047678 -2.780200 -0.000004 -0.000003 0.519834 67.741864 6.749012 2.581942 25.456865 -7.355625 -0.000000 -21.615244 175.965084 0.247895 -0.000004 -0.000004 -0.893363 -24.187435 5.252868 1.826100 0.000001 -0.000004 -0.304606 70.120880 -6.835319 -2.188599 25.456952 7.355613 0.000000 
50.246101 -11.135318 114.559998 10.608265 -0.201050 4.866685 -2.188534 -0.210354 0.087448 -0.373955 -0.423088 0.168893 1.271133 -0.421035 0.173950 -18.805683 18.800688 0.488318 22.706412 -8.837229 -2.703020 -13.899055 -36.303979 -15.534997 49.306640 -129.296137 -11.902939 -0.000002 -0.000001 0.000000 82.517004 8.569380 -5.153265 0.000003 0.000008 -3.011989 -5.000247 -7.998724 0.000157 -14.756748 47.344850 17.091176 35.039625 112.588517 7.341496 -0.000000 0.000000 0.000000 70.523725 3.839494 -1.778784 -0.000003 -0.000002 3.003130 -5.000233 7.998776 -0.000146 -20.673185 -172.509077 4.201865 -179.999991 0.000005 -1.234005 148.299553 -5.069887 -2.792089 -0.000001 -0.000003 0.520071 67.774642 6.748959 2.579825 25.456861 -7.355625 -0.000001 -21.775724 175.918448 0.197326 -0.000004 -0.000004 -0.893398 -24.374642 5.278412 1.844968 0.000001 -0.000003 -0.307478 70.085630 -6.835476 -2.190695 25.456952 7.355613 0.000001 
50.203396 -11.105918 114.494995 10.633746 -0.170912 4.887489 -2.171723 -0.211804 0.083649 -0.340340 -0.425869 0.161319 1.304755 -0.423907 0.166412 -18.901678 18.852842 0.505227 22.654894 -8.913315 -2.699233 -13.932098 -36.300871 -15.580073 49.494170 -129.289962 -11.945734 0.000003 -0.000002 -0.000000 82.658929 8.728055 -5.319005 0.000000 0.000006 -3.011991 -5.000255 -7.998722 0.000154 -14.740511 47.431962 17.073340 35.578227 112.474166 6.856102 0.000001 0.000002 -0.000000 70.686734 3.730791 -1.689262 -0.000001 -0.000003 3.003129 -5.000232 7.998776 -0.000146 -20.786900 -172.547435 4.189400 -179.999991 0.000005 -1.229006 148.187975 -5.089380 -2.803691 -0.000003 -0.000003 0.520117 67.806177 6.748949 2.577892 25.456866 -7.355625 -0.000001 -21.937084 175.873833 0.146481 -0.000004 -0.000005 -0.893478 -24.558288 5.304914 1.863937 0.000001 -0.000004 -0.310361 70.051335 -6.835661 -2.192639 25.456952 7.355614 -0.000000 
50.179195 -11.071321 114.473000 10.662633 -0.142264 4.906275 -2.155594 -0.213161 0.080569 -0.308107 -0.428490 0.155184 1.336986 -0.426601 0.160308 -18.992944 18.903858 0.520315 22.603261 -8.986020 -2.697498 -13.966127 -36.292873 -15.626276 49.668729 -129.285044 -11.995941 -0.000005 -0.000004 -0.000000 82.796134 8.879514 -5.478728 0.000003 0.000008 -3.011992 -5.000250 -7.998725 0.000154 -14.724600 47.517022 17.055886 36.101399 112.364767 6.380056 -0.000002 0.000000 0.000000 70.841971 3.628290 -1.603647 -0.000000 -0.000001 3.003132 -5.000233 7.998778 -0.000147 -20.900751 -172.584851 4.172936 -179.999991 0.000004 -1.224006 148.091916 -5.106253 -2.812897 -0.000005 -0.000003 0.519994 67.836148 6.748918 2.576050 25.456863 -7.355625 -0.000001 -22.100279 175.829423 0.096135 -0.000005 -0.000004 -0.893601 -24.738610 5.332706 1.883129 0.000000 -0.000004 -0.313258 70.018742 -6.835792 -2.194666 25.456953 7.355613 -0.000000 
50.136497 -11.032018 114.407990 10.695719 -0.115344 4.922715 -2.140364 -0.214456 0.078336 -0.277643 -0.431011 0.150743 1.367447 -0.429175 0.155898 -19.080121 18.953782 0.533573 22.552677 -9.054417 -2.698181 -14.001577 -36.278256 -15.673986 49.830437 -129.281397 -12.052947 -0.000002 -0.000005 -0.000002 82.928271 9.023082 -5.631309 -0.000002 0.000007 -3.011991 -5.000252 -7.998724 0.000156 -14.709304 47.599711 17.039186 36.607789 112.259924 5.914561 -0.000000 0.000001 -0.000002 70.989257 3.532412 -1.522364 -0.000003 -0.000002 3.003130 -5.000235 7.998776 -0.000149 -21.015403 -172.622294 4.152778 -179.999991 0.000005 -1.219006 148.012139 -5.119709 -2.820077 -0.000004 -0.000003 0.519726 67.864329 6.748883 2.574519 25.456868 -7.355625 -0.000000 -22.266290 175.786161 0.045923 -0.000004 -0.000005 -0.893768 -24.915712 5.362147 1.902672 0.000001 -0.000004 -0.316170 69.988231 -6.835820 -2.196652 25.456952 7.355613 -0.000002 
50.176197 -10.980919 114.373009 10.733813 -0.090382 4.936523 -2.126205 -0.215718 0.077079 -0.249335 -0.433496 0.148252 1.395760 -0.431690 0.153437 -19.164107 19.003002 0.545159 22.504299 -9.117575 -2.701618 -14.038622 -36.255300 -15.723425 49.978024 -129.279348 -12.117854 0.000001 -0.000003 -0.000002 83.055039 9.158104 -5.776196 0.000000 0.000009 -3.011987 -5.000256 -7.998724 0.000155 -14.694954 47.679765 17.023651 37.091619 112.161576 5.465776 0.000001 0.000002 -0.000001 71.127964 3.443719 -1.445921 0.000003 -0.000001 3.003130 -5.000229 7.998776 -0.000146 -21.131550 -172.659765 4.128875 -179.999991 0.000005 -1.214006 147.949219 -5.129813 -2.826139 -0.000005 -0.000003 0.519336 67.890414 6.748860 2.573017 25.456870 -7.355625 -0.000001 -22.435775 175.745002 -0.004511 -0.000006 -0.000005 -0.893979 -25.089821 5.393588 1.922698 0.000001 -0.000004 -0.319098 69.960173 -6.835860 -2.198586 25.456950 7.355613 -0.000001 
